<svg width="95" height="85" viewBox="0 0 95 85" fill="none" xmlns="http://www.w3.org/2000/svg">
<g filter="url(#filter0_d_38_27)">
<path d="M5 29.1074V54.8056C8.5166 55.517 10.1477 55.0493 11.0921 49.1841V30.7135L23.2762 37.0623L44.937 48.8835C47.4683 50.0359 48.7892 49.962 51.0291 48.8835L72.6898 36.7617L86.9047 29.1074C91.2223 25.9326 90.8368 24.3816 86.9047 21.8798L48.9984 1L9.06139 21.8798C6.12652 23.4509 5.20986 25.0079 5 29.1074Z" fill="white"/>
<path d="M23.2762 64.1418C44.3722 80.3863 55.003 78.6943 72.6898 64.1418V36.9432L51.0291 48.8835C48.7892 49.962 47.4683 50.0359 44.937 48.8835L23.2762 37.2547V64.1418Z" fill="#D2D2D2"/>
<path d="M86.9047 29.1074C91.2223 25.9326 90.8368 24.3816 86.9047 21.8798L48.9984 1L9.06139 21.8798C6.12652 23.4509 5.20986 25.0079 5 29.1074V54.8056C8.5166 55.517 10.1477 55.0493 11.0921 49.1841V30.7135M86.9047 29.1074L72.6898 36.7617M86.9047 29.1074L72.6898 36.9432M51.0291 48.8835L72.6898 36.7617M51.0291 48.8835L72.6898 36.9432M51.0291 48.8835C48.7892 49.962 47.4683 50.0359 44.937 48.8835M44.937 48.8835L23.2762 37.0623M44.937 48.8835L23.2762 37.2547M11.0921 30.7135L23.2762 37.0623M11.0921 30.7135L23.2762 37.2547M23.2762 37.0623V37.2547M72.6898 36.7617V36.9432M23.2762 37.2547V64.1418C44.3722 80.3863 55.003 78.6943 72.6898 64.1418V36.9432" stroke="#616161"/>
</g>
<defs>
<filter id="filter0_d_38_27" x="0.5" y="0.432556" width="94" height="83.7668" filterUnits="userSpaceOnUse" color-interpolation-filters="sRGB">
<feFlood flood-opacity="0" result="BackgroundImageFix"/>
<feColorMatrix in="SourceAlpha" type="matrix" values="0 0 0 0 0 0 0 0 0 0 0 0 0 0 0 0 0 0 127 0" result="hardAlpha"/>
<feOffset dy="4"/>
<feGaussianBlur stdDeviation="2"/>
<feComposite in2="hardAlpha" operator="out"/>
<feColorMatrix type="matrix" values="0 0 0 0 0 0 0 0 0 0 0 0 0 0 0 0 0 0 0.25 0"/>
<feBlend mode="normal" in2="BackgroundImageFix" result="effect1_dropShadow_38_27"/>
<feBlend mode="normal" in="SourceGraphic" in2="effect1_dropShadow_38_27" result="shape"/>
</filter>
</defs>
</svg>
