<svg width="77" height="77" viewBox="0 0 77 77" fill="none" xmlns="http://www.w3.org/2000/svg">
<path d="M1.00643 30.2683H75.9909C76.5253 29.811 53.407 11.5183 53.407 11.5183C53.407 11.5183 40.7866 1 39.4581 1C38.1296 1 25.5092 11.5183 25.5092 11.5183C25.5092 11.5183 0.541026 29.811 1.00643 30.2683Z" fill="black"/>
<path d="M53.407 76C53.407 76 75.9909 76 75.9909 62.2805V30.2683H1.00643V62.2805C1.00643 76 25.5 76 25.5 76V56C25.3236 53.9909 25.8974 53.348 28 53H51C52.9139 53.5062 53.4462 54.1593 53.407 56V76Z" fill="black"/>
<path d="M1.00643 62.2805C1.00643 76 25.5 76 25.5 76V56C25.3236 53.9909 25.8974 53.348 28 53H51C52.9139 53.5062 53.4462 54.1593 53.407 56V76C53.407 76 75.9909 76 75.9909 62.2805M1.00643 62.2805C1.00643 48.561 1.00643 30.2683 1.00643 30.2683M1.00643 62.2805V30.2683M75.9909 62.2805C75.9909 48.561 75.9909 30.2683 75.9909 30.2683M75.9909 62.2805V30.2683M1.00643 30.2683H75.9909M1.00643 30.2683C0.541026 29.811 25.5092 11.5183 25.5092 11.5183C25.5092 11.5183 38.1296 1 39.4581 1C40.7866 1 53.407 11.5183 53.407 11.5183C53.407 11.5183 76.5253 29.811 75.9909 30.2683" stroke="black"/>
</svg>
